<?xml version="1.0" standalone="no"?>
<!DOCTYPE svg PUBLIC "-//W3C//DTD SVG 1.1//EN" "http://www.w3.org/Graphics/SVG/1.1/DTD/svg11.dtd" >
<svg xmlns="http://www.w3.org/2000/svg">
<metadata></metadata>
<defs>
<font id="lcdmonobold" horiz-adv-x="1075" >
<font-face units-per-em="2048" ascent="1638" descent="-410" />
<missing-glyph horiz-adv-x="500" />
<glyph horiz-adv-x="0" />
<glyph unicode="&#xd;" />
<glyph unicode=" " />
<glyph unicode="!" d="M332 104l121 107l90 -107l-121 -104zM367 346l49 352l119 107l92 -107l-49 -352l-121 -104zM449 940l83 594l121 104l90 -104l-84 -594l-118 -106z" />
<glyph unicode="&#x22;" d="M283 1239l28 197l109 96l84 -96l-29 -197l-108 -96zM571 1239l29 197l109 96l84 -96l-29 -197l-109 -96z" />
<glyph unicode="$" d="M-18 225l8 60l121 106l90 -106l-8 -60l-121 -104zM84 940l68 473l118 105l92 -105l-67 -473l-121 -106zM88 104l121 107h125l102 -119l137 119h125l90 -107l-118 -104h-492zM186 819l119 105h127l90 -105l-121 -106h-125zM289 1534l121 104h489l90 -104l-119 -107h-127 l-102 119l-137 -119h-125zM348 225l68 473l119 107l92 -107l-68 -473l-119 -104zM449 940l67 473l119 105l92 -105l-68 -473l-118 -106zM553 819l121 105h125l90 -105l-119 -106h-127zM717 225l65 473l121 107l90 -107l-65 -473l-121 -104zM874 1354l9 59l121 105l90 -105 l-9 -59l-120 -107z" />
<glyph unicode="'" d="M418 1231l28 203l121 104l90 -104l-28 -203l-121 -107z" />
<glyph unicode="(" d="M240 225l82 584h100l96 -111l-67 -473l-121 -104zM326 829l82 584l118 105l92 -105l-67 -473l-125 -111h-100zM344 104l121 107h80l90 -107l-121 -104h-80zM545 1534l121 104h79l91 -104l-121 -107h-80z" />
<glyph unicode=")" d="M240 104l120 107h80l90 -107l-120 -104h-80zM440 1534l121 104h80l90 -104l-121 -107h-80zM457 225l67 473l125 111h101l-82 -584l-119 -104zM557 940l68 473l120 105l91 -105l-82 -584h-101z" />
<glyph unicode="*" d="M319 629l17 114l55 66h135l-18 -135l-74 -45h-115zM354 877l19 135h114l60 -47l-19 -136h-135zM526 676l21 135h135l37 -68l-17 -114h-114zM549 829l18 136l74 47h115l-19 -135l-53 -48h-135z" />
<glyph unicode="+" d="M164 819l121 105h147l90 -105l-121 -106h-145zM393 543l23 155l119 107l92 -107l-23 -155l-121 -107zM449 940l22 156l121 106l90 -106l-23 -156l-118 -106zM553 819l121 105h145l92 -105l-120 -106h-148z" />
<glyph unicode="," d="M410 -102l45 315l120 106l91 -106l-15 -104z" />
<glyph unicode="." d="M424 109l16 104l119 106l92 -106l-16 -104l-119 -107z" />
<glyph unicode="/" d="M-29 0l25 182l420 627h108l-32 -234l-388 -575h-133zM551 829l33 234l387 575h133l-25 -182l-420 -627h-108z" />
<glyph unicode="0" d="M-16 225l65 473l121 107l90 -107l-65 -473l-121 -104zM84 940l66 473l120 105l90 -105l-65 -473l-121 -106zM86 104l121 107h489l92 -107l-120 -104h-490zM287 1534l121 104h489l92 -104l-121 -107h-489zM715 225l65 473l121 107l90 -107l-65 -473l-121 -104zM815 940 l66 473l120 105l91 -105l-66 -473l-121 -106z" />
<glyph unicode="1" d="M299 1206l14 107l217 190l-38 -284l-117 -101zM362 92l87 606l120 107l90 -107l-84 -594l-120 -104zM481 940l84 594l121 104l90 -104l-84 -594l-119 -106z" />
<glyph unicode="2" d="M-33 14l99 688l118 107l92 -107l-67 -477zM-18 0l239 211h494l180 -211h-913zM156 1354l8 59l121 105l90 -105l-8 -59l-121 -107zM203 819l119 105h493l90 -105l-121 -106h-491zM301 1534l121 104h491l91 -104l-121 -107h-490zM829 940l68 473l119 105l92 -105l-68 -473 l-120 -106z" />
<glyph unicode="3" d="M4 104l121 107h551l90 -107l-121 -104h-549zM205 1534l121 104h551l90 -104l-121 -107h-549zM223 819l119 105h434l90 -105l-121 -106h-432zM692 225l68 473l119 107l92 -107l-68 -473l-119 -104zM793 940l67 473l119 105l92 -105l-67 -473l-119 -106z" />
<glyph unicode="4" d="M25 940l69 494l121 104l90 -104l-69 -494l-121 -106zM125 819l121 105h493l90 -105l-120 -106h-492zM639 104l84 594l119 107l92 -107l-84 -594l-121 -104zM756 940l84 594l121 104l90 -104l-84 -594l-119 -106z" />
<glyph unicode="5" d="M-27 225l9 60l120 106l91 -106l-9 -60l-121 -104zM57 829l113 795l182 -215l-65 -469l-127 -111h-103zM78 104l119 107h491l90 -107l-121 -104h-489zM178 819l119 105h494l90 -105l-119 -106h-494zM186 1638h916l-240 -211h-493zM709 225l65 473l121 107l90 -107 l-65 -473l-121 -104z" />
<glyph unicode="6" d="M33 225l82 584h100l96 -111l-67 -473l-121 -104zM119 829l82 584l118 105l91 -105l-66 -473l-125 -111h-100zM137 104l121 107h490l90 -107l-119 -104h-492zM236 819l118 105h494l90 -105l-121 -106h-491zM338 1534l119 104h491l90 -104l-120 -107h-490zM764 225l67 473 l121 107l90 -107l-67 -473l-119 -104z" />
<glyph unicode="7" d="M29 0l24 182l422 627h109l-31 -213l-391 -596h-133zM121 1534l119 104h716l91 -106l-119 -105h-717zM608 829l27 193l262 383h21l-52 -365l-151 -211h-107z" />
<glyph unicode="8" d="M-16 225l65 473l121 107l90 -107l-65 -473l-121 -104zM84 940l66 473l120 105l90 -105l-65 -473l-121 -106zM86 104l121 107h489l92 -107l-120 -104h-490zM184 819l121 105h492l92 -105l-121 -106h-494zM287 1534l121 104h489l92 -104l-121 -107h-489zM715 225l65 473 l121 107l90 -107l-65 -473l-121 -104zM815 940l66 473l120 105l91 -105l-66 -473l-121 -106z" />
<glyph unicode="9" d="M33 940l67 473l119 105l92 -105l-67 -473l-121 -106zM37 104l121 107h489l90 -107l-119 -104h-491zM137 819l121 107h492l90 -107l-119 -104h-494zM238 1534l118 104h492l90 -104l-121 -107h-489zM666 225l65 473l125 111h100l-82 -584l-118 -104zM764 940l67 473 l121 105l90 -105l-81 -584h-101z" />
<glyph unicode=":" d="M391 104l15 107l120 104l90 -104l-14 -107l-121 -104zM459 594l14 104l121 107l90 -107l-14 -104l-121 -107z" />
<glyph unicode=";" d="M377 -102l43 315l121 106l90 -106l-15 -104zM473 594l14 104l121 107l90 -107l-14 -104l-119 -107z" />
<glyph unicode="&#x3c;" d="M342 616l29 193h127l100 -293l-47 -344h-21zM373 829l26 193l314 444h20l-49 -344l-182 -293h-129z" />
<glyph unicode="=" d="M137 104l119 107h494l90 -107l-121 -104h-492zM236 809l120 106h492l90 -106l-119 -104h-493z" />
<glyph unicode="&#x3e;" d="M342 172l49 344l182 293h129l-26 -193l-314 -444h-20zM477 1122l47 344h21l188 -444l-28 -193h-127z" />
<glyph unicode="?" d="M135 1534l121 104h489l82 -94l-131 -117h-471zM178 104l121 107l90 -107l-121 -104zM213 346l49 352l121 107l90 -107l-49 -352l-121 -104zM399 819l144 127h86l106 -127l-119 -106h-127zM645 961l64 452l133 115l98 -115l-66 -473l-120 -106z" />
<glyph unicode="A" d="M-29 104l99 705h102l94 -111l-84 -594l-121 -104zM74 829l80 580l125 109l90 -105l-68 -473l-125 -111h-102zM195 819l120 105h492l92 -105l-121 -106h-493zM297 1534l121 104h489l92 -106l-120 -105h-490zM711 104l84 594l125 111h100l-98 -705l-121 -104zM825 940 l66 473l121 105l92 -107l-80 -582h-104z" />
<glyph unicode="B" d="M-33 14l111 795h102l94 -111l-67 -473zM-20 0l241 211h492l92 -107l-121 -104h-704zM82 829l111 795l182 -211l-68 -473l-125 -111h-100zM201 819l121 105h491l92 -105l-121 -106h-493zM211 1638h702l93 -106l-121 -105h-494zM731 225l66 473l121 107l90 -107l-66 -473 l-121 -104zM831 940l66 473l121 105l90 -105l-66 -473l-120 -106z" />
<glyph unicode="C" d="M-16 225l82 584h100l94 -111l-65 -473l-121 -104zM68 829l82 584l120 105l90 -105l-65 -473l-127 -111h-100zM86 104l121 107h489l92 -107l-120 -104h-490zM287 1534l121 104h489l92 -104l-121 -107h-489zM715 225l8 60l121 106l90 -106l-8 -60l-121 -104zM872 1354l9 59 l120 105l91 -105l-9 -59l-118 -107z" />
<glyph unicode="D" d="M-33 14l111 795h102l94 -111l-67 -473zM-20 0l241 211h492l92 -107l-121 -104h-704zM82 829l111 795l182 -211l-68 -473l-125 -111h-100zM211 1638h702l93 -106l-121 -105h-494zM731 225l66 473l125 111h102l-82 -584l-121 -104zM831 940l66 473l121 105l90 -105 l-82 -584h-100z" />
<glyph unicode="E" d="M35 225l82 584h100l94 -111l-65 -473l-121 -104zM119 829l82 584l121 105l90 -105l-66 -473l-125 -111h-102zM139 104l119 107h492l90 -107l-121 -104h-490zM236 819l120 105h373l92 -105l-121 -106h-372zM340 1534l119 104h491l90 -106l-120 -105h-490z" />
<glyph unicode="F" d="M27 104l98 705h100l97 -111l-84 -594l-121 -104zM129 829l82 584l119 105l90 -105l-66 -473l-125 -111h-100zM246 819l119 105h372l92 -105l-120 -106h-373zM348 1534l119 104h491l91 -106l-121 -105h-490z" />
<glyph unicode="G" d="M18 225l82 584h101l94 -111l-66 -473l-120 -104zM102 829l82 584l121 105l90 -105l-65 -473l-125 -111h-103zM123 104l119 107h491l90 -107l-121 -104h-489zM324 1534l118 104h492l90 -106l-121 -105h-489zM588 819l119 105h337l-241 -211h-125zM750 225l67 473l240 211 l-96 -684l-121 -104z" />
<glyph unicode="H" d="M-35 104l101 705h100l94 -111l-84 -594l-119 -104zM68 829l98 705l121 104l90 -104l-82 -594l-127 -111h-100zM184 819l121 105h492l92 -105l-121 -106h-494zM698 104l82 594l127 111h101l-99 -705l-121 -104zM815 940l84 594l119 104l92 -104l-100 -705h-101z" />
<glyph unicode="I" d="M332 104l84 594l119 107l92 -107l-84 -594l-121 -104zM449 940l83 594l121 104l90 -104l-84 -594l-118 -106z" />
<glyph unicode="J" d="M-27 225l9 60l120 106l91 -106l-9 -60l-121 -104zM76 104l121 107h491l90 -107l-121 -104h-489zM707 225l67 473l125 111h100l-81 -584l-119 -104zM807 940l84 594l121 104l90 -104l-98 -705h-103z" />
<glyph unicode="K" d="M-31 104l99 705h100l94 -111l-82 -594l-121 -104zM70 829l100 705l119 104l92 -104l-84 -594l-125 -111h-102zM186 819l121 105h125l92 -105l-121 -106h-124zM442 721l101 88h94l268 -606l-28 -203h-115zM469 918l522 720h115l-29 -202l-438 -607h-94z" />
<glyph unicode="L" d="M135 225l82 584h100l95 -111l-66 -473l-121 -104zM219 829l100 705l119 104l92 -104l-84 -594l-124 -111h-103zM240 104l118 107h492l90 -107l-121 -104h-489z" />
<glyph unicode="M" d="M-35 104l101 705h100l94 -111l-84 -594l-119 -104zM68 829l98 705l121 104l90 -104l-82 -594l-127 -111h-100zM330 1061l51 364h20l156 -381l-31 -215h-86zM549 829l31 215l262 381h20l-51 -364l-174 -232h-88zM698 104l82 594l127 111h101l-99 -705l-121 -104zM815 940 l84 594l119 104l92 -104l-100 -705h-101z" />
<glyph unicode="N" d="M-35 104l101 705h100l94 -111l-84 -594l-119 -104zM68 829l98 705l121 104l90 -104l-82 -594l-127 -111h-100zM362 1294l35 240h68l354 -412l-26 -182h-123zM698 104l82 594l127 111h101l-99 -705l-121 -104zM815 940l84 594l119 104l92 -104l-100 -705h-101z" />
<glyph unicode="O" d="M-16 225l82 584h100l94 -111l-65 -473l-121 -104zM68 829l82 584l120 105l90 -105l-65 -473l-127 -111h-100zM86 104l121 107h489l92 -107l-120 -104h-490zM287 1534l121 104h489l92 -104l-121 -107h-489zM715 225l65 473l127 111h101l-82 -584l-121 -104zM815 940 l66 473l120 105l91 -105l-82 -584h-101z" />
<glyph unicode="P" d="M-29 104l101 705h100l94 -111l-84 -594l-119 -104zM76 829l112 795l181 -211l-66 -473l-125 -111h-102zM195 819l120 105h494l90 -105l-121 -106h-491zM205 1638h704l90 -106l-120 -105h-492zM825 940l68 473l119 105l92 -105l-68 -473l-118 -106z" />
<glyph unicode="Q" d="M-16 225l82 584h100l94 -111l-65 -473l-121 -104zM68 829l82 584l120 105l90 -105l-65 -473l-127 -111h-100zM86 104l121 107h489l92 -107l-120 -104h-490zM287 1534l121 104h489l92 -104l-121 -107h-489zM569 469l37 264h41l88 -180l-45 -320zM715 225l65 473l127 111 h101l-82 -584l-121 -104zM815 940l66 473l120 105l91 -105l-82 -584h-101z" />
<glyph unicode="R" d="M-29 104l101 705h100l94 -111l-84 -594l-119 -104zM76 829l112 795l181 -211l-66 -473l-125 -111h-102zM195 819l120 105h494l90 -105l-121 -106h-491zM205 1638h704l90 -106l-120 -105h-492zM276 598l13 94h190l439 -604l-13 -88h-196zM825 940l68 473l119 105l92 -105 l-68 -473l-118 -106z" />
<glyph unicode="S" d="M-18 225l8 60l121 106l90 -106l-8 -60l-121 -104zM84 940l68 473l118 105l92 -105l-67 -473l-121 -106zM86 104l119 107h491l90 -107l-120 -104h-490zM186 819l119 105h494l90 -105l-119 -106h-494zM289 1534l121 104h489l90 -104l-119 -107h-491zM717 225l65 473 l121 107l90 -107l-65 -473l-121 -104zM874 1354l9 59l121 105l90 -105l-9 -59l-120 -107z" />
<glyph unicode="T" d="M86 1534l121 104h690l92 -104l-121 -107h-225l-104 119l-136 -119h-225zM229 104l84 594l121 107l90 -107l-84 -594l-118 -104zM348 940l66 473l121 105l90 -105l-66 -473l-121 -106z" />
<glyph unicode="U" d="M-27 225l82 584h103l94 -111l-68 -473l-118 -104zM59 829l99 705l121 104l90 -104l-84 -594l-125 -111h-101zM78 104l121 107h489l92 -107l-121 -104h-491zM707 225l65 473l125 111h102l-81 -584l-121 -104zM807 940l84 594l119 104l92 -104l-101 -705h-100z" />
<glyph unicode="V" d="M6 709l14 100h197l191 -535l-39 -274h-88zM27 829l98 705l121 104l90 -104l-88 -635l-47 -70h-174zM391 0l39 274l340 535h197l-15 -100l-473 -709h-88zM768 899l90 635l119 104l92 -104l-100 -705h-172z" />
<glyph unicode="W" d="M-35 104l101 705h100l94 -111l-84 -594l-119 -104zM68 829l98 705l121 104l90 -104l-82 -594l-127 -111h-100zM211 213l51 365l174 231h88l-30 -215l-263 -381h-20zM516 594l29 215h88l110 -231l-53 -365h-20zM698 106l82 592l127 111h101l-99 -703l-121 -106zM815 940 l84 594l119 104l92 -104l-100 -705h-101z" />
<glyph unicode="X" d="M-29 0l27 203l399 606h127l-28 -213l-392 -596h-133zM172 1436l29 202h135l223 -596l-31 -213h-129zM516 596l31 213h129l227 -606l-29 -203h-135zM551 829l29 213l391 596h133l-27 -202l-399 -607h-127z" />
<glyph unicode="Y" d="M55 1497l21 141h174l201 -616l-27 -193h-150zM227 104l82 594l121 107l90 -107l-82 -594l-121 -104zM444 829l27 193l373 616h176l-21 -141l-405 -668h-150z" />
<glyph unicode="Z" d="M45 104l119 107h534l90 -107l-118 -104h-535zM154 233l43 306l219 270h108l-28 -213l-281 -363h-61zM289 1534l121 104h530l90 -106l-119 -105h-532zM551 829l29 213l280 363h62l-43 -305l-220 -271h-108z" />
<glyph unicode="[" d="M172 14l113 795h100l94 -111l-65 -473zM186 0l240 211h125l131 -152l-10 -59h-486zM287 829l110 795l183 -211l-66 -473l-127 -111h-100zM416 1638h487l-8 -59l-172 -152h-127z" />
<glyph unicode="\" d="M174 1456l27 182h135l225 -575l-33 -234h-108zM514 575l33 234h108l246 -627l-27 -182h-135z" />
<glyph unicode="]" d="M172 0l8 59l172 152h127l180 -211h-487zM393 1579l10 59h486l-240 -211h-125zM496 225l65 473l127 111h100l-110 -795zM596 940l66 473l241 211l-112 -795h-101z" />
<glyph unicode="_" d="M186 104l119 107h494l90 -107l-119 -104h-494z" />
<glyph unicode="a" d="M-29 104l99 705h102l94 -111l-84 -594l-121 -104zM74 829l80 580l125 109l90 -105l-68 -473l-125 -111h-102zM195 819l120 105h492l92 -105l-121 -106h-493zM297 1534l121 104h489l92 -106l-120 -105h-490zM711 104l84 594l125 111h100l-98 -705l-121 -104zM825 940 l66 473l121 105l92 -107l-80 -582h-104z" />
<glyph unicode="b" d="M-33 14l111 795h102l94 -111l-67 -473zM-20 0l241 211h492l92 -107l-121 -104h-704zM82 829l111 795l182 -211l-68 -473l-125 -111h-100zM201 819l121 105h491l92 -105l-121 -106h-493zM211 1638h702l93 -106l-121 -105h-494zM731 225l66 473l121 107l90 -107l-66 -473 l-121 -104zM831 940l66 473l121 105l90 -105l-66 -473l-120 -106z" />
<glyph unicode="c" d="M-16 225l82 584h100l94 -111l-65 -473l-121 -104zM68 829l82 584l120 105l90 -105l-65 -473l-127 -111h-100zM86 104l121 107h489l92 -107l-120 -104h-490zM287 1534l121 104h489l92 -104l-121 -107h-489zM715 225l8 60l121 106l90 -106l-8 -60l-121 -104zM872 1354l9 59 l120 105l91 -105l-9 -59l-118 -107z" />
<glyph unicode="d" d="M-33 14l111 795h102l94 -111l-67 -473zM-20 0l241 211h492l92 -107l-121 -104h-704zM82 829l111 795l182 -211l-68 -473l-125 -111h-100zM211 1638h702l93 -106l-121 -105h-494zM731 225l66 473l125 111h102l-82 -584l-121 -104zM831 940l66 473l121 105l90 -105 l-82 -584h-100z" />
<glyph unicode="e" d="M35 225l82 584h100l94 -111l-65 -473l-121 -104zM119 829l82 584l121 105l90 -105l-66 -473l-125 -111h-102zM139 104l119 107h492l90 -107l-121 -104h-490zM236 819l120 105h373l92 -105l-121 -106h-372zM340 1534l119 104h491l90 -106l-120 -105h-490z" />
<glyph unicode="f" d="M27 104l98 705h100l97 -111l-84 -594l-121 -104zM129 829l82 584l119 105l90 -105l-66 -473l-125 -111h-100zM246 819l119 105h372l92 -105l-120 -106h-373zM348 1534l119 104h491l91 -106l-121 -105h-490z" />
<glyph unicode="g" d="M18 225l82 584h101l94 -111l-66 -473l-120 -104zM102 829l82 584l121 105l90 -105l-65 -473l-125 -111h-103zM123 104l119 107h491l90 -107l-121 -104h-489zM324 1534l118 104h492l90 -106l-121 -105h-489zM588 819l119 105h337l-241 -211h-125zM750 225l67 473l240 211 l-96 -684l-121 -104z" />
<glyph unicode="h" d="M-35 104l101 705h100l94 -111l-84 -594l-119 -104zM68 829l98 705l121 104l90 -104l-82 -594l-127 -111h-100zM184 819l121 105h492l92 -105l-121 -106h-494zM698 104l82 594l127 111h101l-99 -705l-121 -104zM815 940l84 594l119 104l92 -104l-100 -705h-101z" />
<glyph unicode="i" d="M332 104l84 594l119 107l92 -107l-84 -594l-121 -104zM449 940l83 594l121 104l90 -104l-84 -594l-118 -106z" />
<glyph unicode="j" d="M-27 225l9 60l120 106l91 -106l-9 -60l-121 -104zM76 104l121 107h491l90 -107l-121 -104h-489zM707 225l67 473l125 111h100l-81 -584l-119 -104zM807 940l84 594l121 104l90 -104l-98 -705h-103z" />
<glyph unicode="k" d="M-31 104l99 705h100l94 -111l-82 -594l-121 -104zM70 829l100 705l119 104l92 -104l-84 -594l-125 -111h-102zM186 819l121 105h125l92 -105l-121 -106h-124zM442 721l101 88h94l268 -606l-28 -203h-115zM469 918l522 720h115l-29 -202l-438 -607h-94z" />
<glyph unicode="l" d="M135 225l82 584h100l95 -111l-66 -473l-121 -104zM219 829l100 705l119 104l92 -104l-84 -594l-124 -111h-103zM240 104l118 107h492l90 -107l-121 -104h-489z" />
<glyph unicode="m" d="M-35 104l101 705h100l94 -111l-84 -594l-119 -104zM68 829l98 705l121 104l90 -104l-82 -594l-127 -111h-100zM330 1061l51 364h20l156 -381l-31 -215h-86zM549 829l31 215l262 381h20l-51 -364l-174 -232h-88zM698 104l82 594l127 111h101l-99 -705l-121 -104zM815 940 l84 594l119 104l92 -104l-100 -705h-101z" />
<glyph unicode="n" d="M-35 104l101 705h100l94 -111l-84 -594l-119 -104zM68 829l98 705l121 104l90 -104l-82 -594l-127 -111h-100zM362 1294l35 240h68l354 -412l-26 -182h-123zM698 104l82 594l127 111h101l-99 -705l-121 -104zM815 940l84 594l119 104l92 -104l-100 -705h-101z" />
<glyph unicode="o" d="M-16 225l82 584h100l94 -111l-65 -473l-121 -104zM68 829l82 584l120 105l90 -105l-65 -473l-127 -111h-100zM86 104l121 107h489l92 -107l-120 -104h-490zM287 1534l121 104h489l92 -104l-121 -107h-489zM715 225l65 473l127 111h101l-82 -584l-121 -104zM815 940 l66 473l120 105l91 -105l-82 -584h-101z" />
<glyph unicode="p" d="M-29 104l101 705h100l94 -111l-84 -594l-119 -104zM76 829l112 795l181 -211l-66 -473l-125 -111h-102zM195 819l120 105h494l90 -105l-121 -106h-491zM205 1638h704l90 -106l-120 -105h-492zM825 940l68 473l119 105l92 -105l-68 -473l-118 -106z" />
<glyph unicode="q" d="M-16 225l82 584h100l94 -111l-65 -473l-121 -104zM68 829l82 584l120 105l90 -105l-65 -473l-127 -111h-100zM86 104l121 107h489l92 -107l-120 -104h-490zM287 1534l121 104h489l92 -104l-121 -107h-489zM569 469l37 264h41l88 -180l-45 -320zM715 225l65 473l127 111 h101l-82 -584l-121 -104zM815 940l66 473l120 105l91 -105l-82 -584h-101z" />
<glyph unicode="r" d="M-29 104l101 705h100l94 -111l-84 -594l-119 -104zM76 829l112 795l181 -211l-66 -473l-125 -111h-102zM195 819l120 105h494l90 -105l-121 -106h-491zM205 1638h704l90 -106l-120 -105h-492zM276 598l13 94h190l439 -604l-13 -88h-196zM825 940l68 473l119 105l92 -105 l-68 -473l-118 -106z" />
<glyph unicode="s" d="M-18 225l8 60l121 106l90 -106l-8 -60l-121 -104zM84 940l68 473l118 105l92 -105l-67 -473l-121 -106zM86 104l119 107h491l90 -107l-120 -104h-490zM186 819l119 105h494l90 -105l-119 -106h-494zM289 1534l121 104h489l90 -104l-119 -107h-491zM717 225l65 473 l121 107l90 -107l-65 -473l-121 -104zM874 1354l9 59l121 105l90 -105l-9 -59l-120 -107z" />
<glyph unicode="t" d="M86 1534l121 104h690l92 -104l-121 -107h-225l-104 119l-136 -119h-225zM229 104l84 594l121 107l90 -107l-84 -594l-118 -104zM348 940l66 473l121 105l90 -105l-66 -473l-121 -106z" />
<glyph unicode="u" d="M-27 225l82 584h103l94 -111l-68 -473l-118 -104zM59 829l99 705l121 104l90 -104l-84 -594l-125 -111h-101zM78 104l121 107h489l92 -107l-121 -104h-491zM707 225l65 473l125 111h102l-81 -584l-121 -104zM807 940l84 594l119 104l92 -104l-101 -705h-100z" />
<glyph unicode="v" d="M6 709l14 100h197l191 -535l-39 -274h-88zM27 829l98 705l121 104l90 -104l-88 -635l-47 -70h-174zM391 0l39 274l340 535h197l-15 -100l-473 -709h-88zM768 899l90 635l119 104l92 -104l-100 -705h-172z" />
<glyph unicode="w" d="M-35 104l101 705h100l94 -111l-84 -594l-119 -104zM68 829l98 705l121 104l90 -104l-82 -594l-127 -111h-100zM211 213l51 365l174 231h88l-30 -215l-263 -381h-20zM516 594l29 215h88l110 -231l-53 -365h-20zM698 106l82 592l127 111h101l-99 -703l-121 -106zM815 940 l84 594l119 104l92 -104l-100 -705h-101z" />
<glyph unicode="x" d="M-29 0l27 203l399 606h127l-28 -213l-392 -596h-133zM172 1436l29 202h135l223 -596l-31 -213h-129zM516 596l31 213h129l227 -606l-29 -203h-135zM551 829l29 213l391 596h133l-27 -202l-399 -607h-127z" />
<glyph unicode="y" d="M55 1497l21 141h174l201 -616l-27 -193h-150zM227 104l82 594l121 107l90 -107l-82 -594l-121 -104zM444 829l27 193l373 616h176l-21 -141l-405 -668h-150z" />
<glyph unicode="z" d="M45 104l119 107h534l90 -107l-118 -104h-535zM154 233l43 306l219 270h108l-28 -213l-281 -363h-61zM289 1534l121 104h530l90 -106l-119 -105h-532zM551 829l29 213l280 363h62l-43 -305l-220 -271h-108z" />
<glyph unicode="|" d="M317 0l99 698l119 107l92 -107l-99 -698l-120 -104zM449 940l98 698l121 105l90 -105l-99 -698l-118 -106z" />
<glyph unicode="&#xa0;" />
<glyph unicode="&#x2000;" horiz-adv-x="871" />
<glyph unicode="&#x2001;" horiz-adv-x="1743" />
<glyph unicode="&#x2002;" horiz-adv-x="871" />
<glyph unicode="&#x2003;" horiz-adv-x="1743" />
<glyph unicode="&#x2004;" horiz-adv-x="581" />
<glyph unicode="&#x2005;" horiz-adv-x="435" />
<glyph unicode="&#x2006;" horiz-adv-x="290" />
<glyph unicode="&#x2007;" horiz-adv-x="290" />
<glyph unicode="&#x2008;" horiz-adv-x="217" />
<glyph unicode="&#x2009;" horiz-adv-x="348" />
<glyph unicode="&#x200a;" horiz-adv-x="96" />
<glyph unicode="&#x202f;" horiz-adv-x="348" />
<glyph unicode="&#x205f;" horiz-adv-x="435" />
<glyph unicode="&#x25fc;" horiz-adv-x="1638" d="M0 0v1638h1638v-1638h-1638z" />
</font>
</defs>
</svg>
