<?xml version="1.0" standalone="no"?>
<!DOCTYPE svg PUBLIC "-//W3C//DTD SVG 20010904//EN"
 "http://www.w3.org/TR/2001/REC-SVG-20010904/DTD/svg10.dtd">
<svg version="1.0" xmlns="http://www.w3.org/2000/svg"
 width="726.000000pt" height="726.000000pt" viewBox="0 0 726.000000 726.000000"
 preserveAspectRatio="xMidYMid meet">
<metadata>
Created by potrace 1.11, written by Peter Selinger 2001-2013
</metadata>
<g transform="translate(0.000000,726.000000) scale(0.100000,-0.100000)"
fill="#000000" stroke="none">
<path d="M0 3630 l0 -3630 3630 0 3630 0 0 3630 0 3630 -613 0 -614 0 -13 -25
c-7 -14 -18 -25 -24 -25 -6 0 -24 -19 -41 -41 -16 -22 -42 -48 -57 -57 -16 -9
-28 -21 -28 -27 0 -11 -26 -27 -62 -39 -10 -3 -18 -13 -18 -22 0 -11 -6 -15
-20 -11 -11 3 -20 0 -20 -6 -1 -16 -66 -57 -90 -57 -11 0 -23 -7 -28 -16 -9
-16 -43 -23 -114 -24 -18 -1 -28 -6 -28 -15 0 -9 -10 -15 -25 -15 -14 0 -25 4
-25 9 0 4 -11 6 -25 3 -18 -3 -25 0 -25 12 0 15 -60 54 -60 39 -1 -5 -7 7 -16
26 -8 19 -32 51 -54 71 -22 20 -40 42 -40 48 0 6 -6 15 -13 19 -7 4 -23 25
-36 46 -12 20 -27 37 -32 37 -6 0 -17 16 -25 35 l-14 35 -2550 0 -2550 0 0
-3630z m6140 2802 c171 -40 363 -126 485 -218 84 -62 205 -173 205 -187 0 -7
-29 -38 -65 -70 l-65 -58 -62 61 c-153 153 -363 261 -588 301 -96 17 -323 17
-420 0 -114 -20 -225 -58 -332 -113 -302 -154 -509 -430 -584 -778 -26 -119
-26 -391 0 -510 75 -344 281 -621 576 -774 261 -136 558 -169 849 -95 188 48
338 130 476 261 l92 87 69 -64 69 -65 -85 -81 c-170 -162 -360 -264 -604 -325
-149 -38 -386 -44 -551 -16 -66 12 -156 33 -200 47 -461 151 -795 530 -892
1013 -25 121 -25 413 0 534 112 557 530 964 1092 1063 117 21 422 13 535 -13z
m-4250 -107 l0 -95 -545 0 -545 0 0 -480 0 -480 500 0 500 0 0 -90 0 -90 -500
0 -500 0 0 -640 0 -640 -100 0 -100 0 0 1305 0 1305 645 0 645 0 0 -95z m945
-555 c215 -358 392 -650 395 -650 3 0 181 292 395 650 l390 649 108 1 c59 0
107 -4 107 -9 0 -5 -96 -168 -214 -362 -117 -195 -319 -530 -450 -746 l-236
-392 0 -551 0 -551 -97 3 -98 3 -5 555 -5 555 -294 485 c-488 805 -590 975
-597 993 -6 15 4 17 102 17 l109 -1 390 -649z m-1480 -2336 c113 -29 202 -81
296 -174 141 -141 193 -264 193 -465 0 -143 -20 -219 -87 -336 -53 -94 -63
-105 -596 -729 l-432 -505 586 -3 585 -2 0 -85 0 -85 -771 0 c-478 0 -769 4
-767 9 1 6 47 61 100 123 426 499 1039 1224 1076 1273 90 121 125 223 124 355
-1 140 -46 243 -150 343 -109 104 -255 151 -396 128 -217 -36 -383 -210 -410
-431 l-7 -55 -89 3 c-105 4 -100 -4 -75 129 41 216 210 413 420 489 123 45
266 51 400 18z m1913 -5 c219 -50 396 -195 492 -402 53 -114 69 -187 81 -372
15 -221 5 -913 -15 -1015 -80 -409 -394 -650 -819 -627 -127 7 -202 25 -302
71 -203 95 -338 264 -402 502 l-26 99 -5 470 c-4 528 2 636 48 779 41 125 91
207 185 301 93 93 162 136 277 176 151 51 317 58 486 18z m2912 9 c97 -22 191
-77 271 -157 114 -115 169 -244 169 -399 0 -185 -89 -348 -238 -439 l-44 -26
79 -37 c91 -44 182 -115 236 -185 150 -196 190 -477 100 -705 -118 -296 -394
-480 -718 -480 -224 0 -395 71 -550 225 -138 138 -204 285 -213 475 -14 294
123 541 365 663 l92 46 -43 25 c-61 36 -132 111 -172 181 -92 166 -82 397 27
566 37 58 130 147 191 183 131 77 293 100 448 64z m-1450 -1208 l0 -1180 -90
0 -90 0 0 1095 0 1095 -175 0 -175 0 0 85 0 85 265 0 265 0 0 -1180z"/>
<path d="M2975 3284 c-11 -2 -44 -9 -73 -15 -159 -32 -305 -148 -379 -300 -68
-142 -76 -236 -70 -809 5 -508 8 -536 74 -670 43 -88 138 -189 224 -238 113
-64 309 -90 451 -61 163 33 315 153 387 302 72 149 76 186 76 737 0 427 -2
496 -18 575 -45 225 -190 391 -397 456 -62 19 -231 34 -275 23z"/>
<path d="M5967 3280 c-125 -22 -242 -112 -300 -230 -30 -60 -32 -72 -32 -170
0 -97 2 -110 32 -173 58 -122 170 -206 306 -230 173 -29 352 67 430 230 30 63
32 76 32 173 0 97 -2 110 -31 170 -77 164 -261 260 -437 230z"/>
<path d="M5882 2300 c-106 -28 -187 -75 -267 -155 -289 -289 -182 -772 205
-923 259 -102 565 -6 709 222 68 108 85 172 85 311 0 106 -3 128 -27 188 -110
283 -410 434 -705 357z"/>
</g>
</svg>
