<svg xmlns="http://www.w3.org/2000/svg" viewBox="0 0 582 193" preserveAspectRatio="xMinYMin" x="0px" y="0px" width="100%" height="100%"><defs><style>.map-a{fill:#eabc1a;}</style></defs><path class="map-a" d="M64.33.38a64,64,0,0,0-64,64c0,35.36,64,127.71,64,127.71s64-92.35,64-127.71A64,64,0,0,0,64.33.38Zm.07,78.73A22.09,22.09,0,1,1,86.49,57,22.09,22.09,0,0,1,64.4,79.11Z"/><path class="map-a" d="M181.27,61.45l66.86,72.85L315,61.45V192.62H288.1V128.3l-40,44.87-40-44.87v64.31H181.27Z"/><path class="map-a" d="M400.29,58.72l65.95,133.89H436.44l-9.81-20.17H373.76L364,192.62H334.34Zm16,89.93-16.17-33.25-16,33.25Z"/><path class="map-a" d="M485.59,66H539c19.26,0,42.69,15.08,42.69,42.87,0,25.62-21.8,42.87-42.69,42.87H513.57v40.88h-28Zm51.78,60.31c5.63,0,16.35-3.63,16.35-17.44,0-14-10.72-17.44-16.35-17.44h-23.8v34.88Z"/></svg>